<svg xmlns="http://www.w3.org/2000/svg" width="200" height="31"><path fill="#fabb00" d="M1.15 24.8a11.05 11.05 0 0 0 3.4.5c2.65 0 4.34-1.3 5.1-5.5l3.4-17.95h6.05l-3.6 18.7c-1.34 7.19-4.45 10.09-10.88 10.09-1.76 0-3.74-.3-4.62-.68zM40.5 17.6c0 7.52-5.13 13.03-12.27 13.03-5.21 0-8.7-3.4-8.7-8.5 0-7.13 4.94-12.98 12.27-12.98 5.5 0 8.7 3.78 8.7 8.45zm-14.72 4.41c0 2.4 1.18 4 3.28 4 3.32 0 5.17-4.84 5.17-8.37 0-1.89-.8-3.9-3.24-3.9-3.48 0-5.24 5.07-5.2 8.27zM53.97.34L51.54 12.1h.08a8.23 8.23 0 0 1 6.34-2.9c4.3 0 6.23 3.48 6.23 7.14 0 6.68-4.38 14.33-13.62 14.33-4.88 0-7.31-2.1-7.31-5.76a18.3 18.3 0 0 1 .45-3.74L47.87.36zm-4.24 21.18a11.57 11.57 0 0 0-.21 2.27c.04 1.47.93 2.24 2.3 2.24 3.5 0 6.02-4.87 6.02-8.49 0-1.97-.84-3.53-2.7-3.53-2.18 0-4.32 2.25-5.04 5.8zM71.41 2.4a34.7 34.7 0 0 1 7.57-.76c2.7 0 5.46.42 7.43 1.64a6.15 6.15 0 0 1 3.15 5.55c0 4.2-2.81 6.8-6.43 7.98v.17c1.68.71 2.4 2.6 2.7 5.17.33 3.14.58 6.85 1.09 8.02H80.7c-.26-.75-.55-3.19-.84-6.67-.3-3.49-1.43-4.5-3.83-4.5h-1.85l-2.1 11.18h-6zm3.66 12.06h2.52c3.28 0 5.67-1.98 5.67-4.75 0-2.27-1.93-3.28-4.33-3.28a9.93 9.93 0 0 0-2.35.21zm36.5 3.15c0 7.52-5.13 13.03-12.28 13.03-5.2 0-8.7-3.4-8.7-8.5 0-7.13 4.94-12.98 12.27-12.98 5.49 0 8.7 3.78 8.7 8.45zm-14.72 4.41c0 2.4 1.18 4 3.28 4 3.32 0 5.17-4.84 5.17-8.37 0-1.89-.8-3.9-3.23-3.9-3.53 0-5.28 5.07-5.24 8.27zm38.81-12.4l-2.65 13.88c-.5 2.6-.8 4.82-1.1 6.67h-5.33l.38-3.36h-.09c-2.1 2.7-4.62 3.83-7.1 3.83-3.28 0-5.25-1.85-5.25-5.76a18.7 18.7 0 0 1 .42-3.78l2.14-11.48h6.06l-2.06 11a16.62 16.62 0 0 0-.3 2.7c0 1.34.5 2.39 2.06 2.39 2.06 0 4.16-2.48 4.94-6.6l1.8-9.5zm12.85-5.75l-1.09 5.75h4.37l-.9 4.59h-4.36l-1.39 6.97a15.02 15.02 0 0 0-.34 2.6c0 1.02.42 1.73 1.73 1.73a11.14 11.14 0 0 0 1.68-.08l-.71 4.74a11.8 11.8 0 0 1-3.58.45c-3.59 0-5.33-1.85-5.33-4.4a19.76 19.76 0 0 1 .42-3.83l1.6-8.2H138l.84-4.58h2.65l.84-4.33zM168.48 29c-2.4 1.22-5.4 1.6-7.64 1.6-5.88 0-8.9-3.32-8.9-8.66 0-6.26 4.53-12.78 11.97-12.78 4.16 0 7.14 2.32 7.14 6.14 0 5.25-5.09 7.14-13.32 6.93a4.08 4.08 0 0 0 .63 2.1c.8 1.06 2.19 1.6 3.95 1.6a12.9 12.9 0 0 0 5.76-1.3zm-5.34-15.42c-2.82 0-4.42 2.3-4.83 4.24 4.7.04 7.06-.63 7.06-2.48 0-1.05-.85-1.76-2.23-1.76zm9.2 16.6l2.31-12.23c.59-3.11.84-6.56 1.05-8.33h5.25l-.37 4.2h.12c1.43-2.72 3.74-4.66 6.55-4.66a9.58 9.58 0 0 1 1.14.05l-1.18 5.88a7.4 7.4 0 0 0-.96-.04c-3.87 0-5.67 3.44-6.43 7.47l-1.43 7.64zm21.94-19.09a6.1 6.1 0 0 1 1.29-.12 2.52 2.52 0 0 1 1.27.28 1.05 1.05 0 0 1 .53.94 1.42 1.42 0 0 1-1.1 1.35v.03c.3.12.42.45.46.9a9.02 9.02 0 0 0 .18 1.34h-1.06a8.66 8.66 0 0 1-.14-1.13c-.04-.59-.24-.77-.65-.77h-.32l-.35 1.9h-1.03zm.62 2.06h.45a.87.87 0 0 0 .97-.8c0-.4-.33-.56-.73-.56a1.63 1.63 0 0 0-.4.03z"/><path fill="none" stroke="#fabb00" stroke-width=".7" d="M199.65 13.56a4.3 4.3 0 1 1-4.31-4.3 4.31 4.31 0 0 1 4.31 4.3z"/></svg>